<svg width="50" height="42" viewBox="0 0 50 42" fill="none" xmlns="http://www.w3.org/2000/svg">
<path d="M49.0812 32.8564L29.931 2.84978C28.8511 1.15741 27.0077 0.146973 25 0.146973C22.9921 0.146973 21.1487 1.15741 20.0691 2.84978L0.918709 32.8563C-0.230721 34.6576 -0.306975 36.9408 0.720354 38.8153C1.74768 40.689 3.71322 41.8531 5.84992 41.8531H44.1502C46.2869 41.8531 48.2524 40.6891 49.2801 38.8148C50.3069 36.9408 50.2307 34.6577 49.0812 32.8564ZM25 36.8022C23.2389 36.8022 21.8115 35.3746 21.8115 33.6137C21.8115 31.8526 23.2391 30.425 25 30.425C26.761 30.425 28.1885 31.8526 28.1885 33.6137C28.1885 35.3746 26.7609 36.8022 25 36.8022ZM29.4194 14.6451L27.849 25.2187C27.6178 26.7752 26.1687 27.8495 24.6124 27.6183C23.3551 27.4315 22.4123 26.4457 22.2185 25.2548L20.5131 14.702C20.1161 12.245 21.7859 9.93137 24.2429 9.53434C26.6999 9.13731 29.0136 10.8072 29.4106 13.2642C29.4852 13.7268 29.4827 14.2045 29.4194 14.6451Z" fill="#F24743"/>
</svg>
