<svg width="26" height="26" viewBox="0 0 26 26" fill="none" xmlns="http://www.w3.org/2000/svg">
<path fill-rule="evenodd" clip-rule="evenodd" d="M22.585 2.03525C21.3158 0.766045 19.258 0.76604 17.9888 2.03525L2.6514 17.3727C2.1977 17.8264 1.88844 18.4042 1.76262 19.0333L1.12662 22.2133C0.823411 23.7293 2.16007 25.0661 3.67613 24.7628L6.85608 24.1268C7.48525 24.001 8.0631 23.6918 8.5168 23.2381L23.8541 7.90064C25.1234 6.63144 25.1234 4.57366 23.8541 3.30445L22.585 2.03525ZM19.5208 3.56731C19.944 3.14424 20.6298 3.14424 21.053 3.56731L22.3221 4.83652C22.7452 5.25958 22.7452 5.94551 22.3221 6.36858L19.4279 9.2628L16.6267 6.46153L19.5208 3.56731ZM15.0945 7.9936L4.18346 18.9047C4.03223 19.056 3.92915 19.2486 3.88721 19.4583L3.25121 22.6382L6.43116 22.0022C6.64089 21.9603 6.8335 21.8572 6.98474 21.706L17.8958 10.7949L15.0945 7.9936Z" fill="#182651"/>
</svg>
