<svg width="25" height="25" viewBox="0 0 25 25" fill="none" xmlns="http://www.w3.org/2000/svg">
<path fill-rule="evenodd" clip-rule="evenodd" d="M5.20833 2.08333H7.29166C7.86696 2.08333 8.33333 2.5497 8.33333 3.12499C8.33333 3.6592 7.9312 4.09948 7.41314 4.15965L7.29166 4.16666H5.20833C4.67412 4.16666 4.23384 4.56879 4.17367 5.08685L4.16666 5.20833V19.7917C4.16666 20.3259 4.56879 20.7661 5.08685 20.8263L5.20833 20.8333H19.7917C20.3259 20.8333 20.7661 20.4312 20.8263 19.9131L20.8333 19.7917V17.7083C20.8333 17.133 21.2997 16.6667 21.875 16.6667C22.4092 16.6667 22.8495 17.0688 22.9097 17.5868L22.9167 17.7083V19.7917C22.9167 21.4559 21.6157 22.8163 19.9753 22.9114L19.7917 22.9167H5.20833C3.54408 22.9167 2.18368 21.6157 2.08863 19.9753L2.08333 19.7917V5.20833C2.08333 3.54408 3.38429 2.18368 5.02471 2.08863L5.20833 2.08333ZM21.875 2.08333L21.9594 2.08645L22.0841 2.10441L22.2001 2.13514L22.3158 2.1809L22.4174 2.23541L22.5174 2.30498L22.6116 2.38843L22.7121 2.50488L22.7868 2.62076L22.8191 2.68427L22.8543 2.76911L22.8793 2.84792L22.9095 3.00198L22.9167 3.12499V9.37499C22.9167 9.95029 22.4503 10.4167 21.875 10.4167C21.2997 10.4167 20.8333 9.95029 20.8333 9.37499V5.63958L14.2782 12.1949C13.9027 12.5704 13.3119 12.5993 12.9032 12.2816L12.8051 12.1949C12.4296 11.8194 12.4007 11.2285 12.7184 10.8199L12.8051 10.7218L19.3583 4.16666H15.625C15.0497 4.16666 14.5833 3.70029 14.5833 3.12499C14.5833 2.5497 15.0497 2.08333 15.625 2.08333H21.875Z" fill="#182651"/>
</svg>
